<svg width="32" height="32" viewBox="0 0 32 32" fill="none" xmlns="http://www.w3.org/2000/svg">
<g id="icon/AI Generate A lined">
<g id="Vector">
<path d="M25.3333 29.3334C25.3333 30.0698 24.7364 30.6667 24 30.6667C23.2636 30.6667 22.6667 30.0698 22.6667 29.3334C22.6667 28.597 23.2636 28 24 28C24.7364 28 25.3333 28.597 25.3333 29.3334Z" fill="#01DDEF"/>
<path d="M30.6667 24C30.6667 24.7364 30.0697 25.3334 29.3333 25.3334C28.597 25.3334 28 24.7364 28 24C28 23.2637 28.597 22.6667 29.3333 22.6667C30.0697 22.6667 30.6667 23.2637 30.6667 24Z" fill="#01DDEF"/>
<path d="M4 8.00004C4 8.73642 3.40305 9.33337 2.66667 9.33337C1.93029 9.33337 1.33334 8.73642 1.33334 8.00004C1.33334 7.26366 1.93029 6.66671 2.66667 6.66671C3.40305 6.66671 4 7.26366 4 8.00004Z" fill="#01DDEF"/>
<path d="M9.33334 2.66671C9.33334 3.40309 8.73638 4.00004 8 4.00004C7.26362 4.00004 6.66667 3.40309 6.66667 2.66671C6.66667 1.93033 7.26362 1.33337 8 1.33337C8.73638 1.33337 9.33334 1.93033 9.33334 2.66671Z" fill="#01DDEF"/>
<path fill-rule="evenodd" clip-rule="evenodd" d="M16 8.64393L15.1304 12.2301C14.7828 13.6636 13.6636 14.7828 12.2301 15.1304L8.64389 16L12.2301 16.8696C13.6636 17.2172 14.7828 18.3365 15.1304 19.7699L16 23.3562L16.8696 19.7699C17.2172 18.3365 18.3364 17.2172 19.7699 16.8696L23.3561 16L19.7699 15.1304C18.3364 14.7828 17.2172 13.6636 16.8696 12.2301L16 8.64393ZM17.7403 6.70213C17.2978 4.87712 14.7022 4.87712 14.2597 6.70213L13.042 11.7237C12.884 12.3753 12.3753 12.8841 11.7237 13.0421L6.70209 14.2597C4.87708 14.7023 4.87709 17.2978 6.70209 17.7404L11.7237 18.958C12.3753 19.116 12.884 19.6248 13.042 20.2763L14.2597 25.298C14.7022 27.123 17.2978 27.123 17.7403 25.298L18.958 20.2763C19.116 19.6248 19.6247 19.116 20.2763 18.958L25.2979 17.7404C27.1229 17.2978 27.1229 14.7023 25.2979 14.2597L20.2763 13.0421C19.6247 12.8841 19.116 12.3753 18.958 11.7237L17.7403 6.70213Z" fill="#01DDEF"/>
<path fill-rule="evenodd" clip-rule="evenodd" d="M12.0062 29.753C11.7744 30.3739 11.0832 30.6894 10.4623 30.4576C6.4404 28.9565 3.20977 25.8402 1.55965 21.8972C1.3038 21.2858 1.592 20.5828 2.20337 20.3269C2.81473 20.0711 3.51775 20.3593 3.7736 20.9706C5.16827 24.3033 7.90205 26.9403 11.3015 28.2091C11.9224 28.4409 12.2379 29.1321 12.0062 29.753Z" fill="#01DDEF"/>
<path fill-rule="evenodd" clip-rule="evenodd" d="M29.7538 12.0277C29.1331 12.26 28.4416 11.945 28.2094 11.3243C26.9306 7.90609 24.2628 5.161 20.8924 3.77672C20.2794 3.52492 19.9865 2.82383 20.2383 2.21078C20.4901 1.59774 21.1912 1.30488 21.8043 1.55668C25.7902 3.19382 28.9435 6.43734 30.4572 10.4833C30.6894 11.1041 30.3745 11.7955 29.7538 12.0277Z" fill="#01DDEF"/>
</g>
</g>
</svg>
