<svg width="24" height="24" viewBox="0 0 24 24" fill="none" xmlns="http://www.w3.org/2000/svg">
<g id="icon/collapse">
<g id="Vector">
<path d="M4 3C4 3.55228 3.55228 4 3 4C2.44772 4 2 3.55228 2 3C2 2.44772 2.44772 2 3 2C3.55228 2 4 2.44772 4 3Z" fill="white"/>
<path d="M22 21C22 21.5523 21.5523 22 21 22C20.4477 22 20 21.5523 20 21C20 20.4477 20.4477 20 21 20C21.5523 20 22 20.4477 22 21Z" fill="white"/>
<path fill-rule="evenodd" clip-rule="evenodd" d="M13.9 3.5C14.3971 3.5 14.8 3.90294 14.8 4.4V9.5H19.9C20.3971 9.5 20.8 9.90294 20.8 10.4C20.8 10.8971 20.3971 11.3 19.9 11.3H13.9C13.4029 11.3 13 10.8971 13 10.4V4.4C13 3.90294 13.4029 3.5 13.9 3.5Z" fill="white"/>
<path fill-rule="evenodd" clip-rule="evenodd" d="M22.0364 2.2636C22.3879 2.61508 22.3879 3.18492 22.0364 3.5364L14.5364 11.0364C14.1849 11.3879 13.6151 11.3879 13.2636 11.0364C12.9121 10.6849 12.9121 10.1151 13.2636 9.7636L20.7636 2.2636C21.1151 1.91213 21.6849 1.91213 22.0364 2.2636Z" fill="white"/>
<path fill-rule="evenodd" clip-rule="evenodd" d="M4 12.9C4 12.4029 4.40295 12 4.9 12H10.9C11.3971 12 11.8 12.4029 11.8 12.9V18.9C11.8 19.3971 11.3971 19.8 10.9 19.8C10.4029 19.8 10 19.3971 10 18.9V13.8H4.9C4.40295 13.8 4 13.3971 4 12.9Z" fill="white"/>
<path fill-rule="evenodd" clip-rule="evenodd" d="M11.5364 12.2636C11.8879 12.6151 11.8879 13.1849 11.5364 13.5364L4.5364 20.5364C4.18492 20.8879 3.61508 20.8879 3.2636 20.5364C2.91213 20.1849 2.91213 19.6151 3.2636 19.2636L10.2636 12.2636C10.6151 11.9121 11.1849 11.9121 11.5364 12.2636Z" fill="white"/>
</g>
</g>
</svg>
