<svg width="168" height="8" viewBox="0 0 168 8" fill="none" xmlns="http://www.w3.org/2000/svg">
<g id="Group">
<path id="Vector" d="M5.69751 0.714355V1.47888H3.67668V7.92485H2.71053V1.47888H0.682007V0.714355H5.69751Z" fill="white"/>
<path id="Vector_2" d="M8.70757 1.4828V3.89254H11.4059V4.66831H8.70757V7.153H11.7253V7.92877H7.74142V0.707031H11.7253V1.4828H8.70757Z" fill="white"/>
<path id="Vector_3" d="M14.1696 2.41964C14.4968 1.85749 14.9394 1.41901 15.5014 1.10046C16.0634 0.781912 16.6908 0.624512 17.376 0.624512C18.1843 0.624512 18.8887 0.815641 19.4892 1.19415C20.0896 1.57267 20.5323 2.11233 20.8056 2.8094H19.647C19.443 2.37467 19.1466 2.04113 18.7578 1.80502C18.3729 1.56892 17.9071 1.45274 17.3721 1.45274C16.8371 1.45274 16.3906 1.56892 15.9787 1.80502C15.5668 2.04113 15.2435 2.37092 15.0125 2.8019C14.7777 3.23288 14.6623 3.73882 14.6623 4.3197C14.6623 4.90059 14.7777 5.39528 15.0125 5.82626C15.2473 6.25724 15.5668 6.59078 15.9787 6.82314C16.3906 7.05924 16.8525 7.17542 17.3721 7.17542C17.8917 7.17542 18.3729 7.05924 18.7578 6.82688C19.1427 6.59453 19.4391 6.26474 19.647 5.83001H20.8056C20.5284 6.51958 20.0896 7.05174 19.4892 7.43026C18.8887 7.80502 18.1804 7.9924 17.376 7.9924C16.6869 7.9924 16.0634 7.83501 15.5014 7.5202C14.9394 7.2054 14.4929 6.77067 14.1696 6.21227C13.8424 5.65387 13.6807 5.02051 13.6807 4.3197C13.6807 3.61889 13.8424 2.98179 14.1696 2.41964Z" fill="white"/>
<path id="Vector_4" d="M28.8042 0.714355V7.9286H27.8381V4.65689H24.0658V7.9286H23.0997V0.714355H24.0658V3.88112H27.8381V0.714355H28.8042Z" fill="white"/>
<path id="Vector_5" d="M37.1262 7.92877H36.16L32.2685 2.18735V7.92877H31.3023V0.707031H32.2685L36.16 6.44095V0.707031H37.1262V7.92877Z" fill="white"/>
<path id="Vector_6" d="M41.1024 7.5316C40.5365 7.2168 40.0862 6.77832 39.759 6.21617C39.428 5.65403 39.2663 5.02067 39.2663 4.31611C39.2663 3.61155 39.4318 2.9782 39.759 2.41605C40.09 1.8539 40.5365 1.41542 41.1024 1.10062C41.6682 0.785818 42.2956 0.628418 42.9846 0.628418C43.6736 0.628418 44.3088 0.785818 44.8746 1.10062C45.4404 1.41542 45.8869 1.85015 46.2141 2.40856C46.5413 2.96696 46.7029 3.60031 46.7029 4.31236C46.7029 5.02442 46.5413 5.65777 46.2141 6.21617C45.8869 6.77457 45.4404 7.21305 44.8746 7.52411C44.3088 7.83516 43.6775 7.99631 42.9846 7.99631C42.2918 7.99631 41.6721 7.83891 41.1024 7.52411V7.5316ZM44.3819 6.83079C44.7976 6.59469 45.1209 6.26115 45.3596 5.82642C45.5982 5.39169 45.7176 4.8895 45.7176 4.31611C45.7176 3.74272 45.5982 3.23304 45.3596 2.79831C45.1209 2.36733 44.7976 2.03379 44.3857 1.80143C43.9739 1.56533 43.5081 1.44915 42.9846 1.44915C42.4611 1.44915 41.9915 1.56533 41.5835 1.80143C41.1717 2.03754 40.8483 2.36733 40.6097 2.79831C40.371 3.22929 40.2556 3.73522 40.2556 4.31611C40.2556 4.897 40.3749 5.39169 40.6097 5.82642C40.8483 6.26115 41.1717 6.59469 41.5874 6.83079C42.0031 7.06689 42.4688 7.18307 42.9846 7.18307C43.5004 7.18307 43.9662 7.06689 44.3819 6.83079Z" fill="white"/>
<path id="Vector_7" d="M49.7938 7.16066H52.3882V7.92518H48.8277V0.710938H49.7938V7.15691V7.16066Z" fill="white"/>
<path id="Vector_8" d="M55.7486 7.5316C55.1827 7.2168 54.7324 6.77832 54.4052 6.21617C54.0742 5.65403 53.9125 5.02067 53.9125 4.31611C53.9125 3.61155 54.078 2.9782 54.4052 2.41605C54.7362 1.8539 55.1827 1.41542 55.7486 1.10062C56.3144 0.785818 56.9418 0.628418 57.6308 0.628418C58.3198 0.628418 58.9549 0.785818 59.5208 1.10062C60.0866 1.41542 60.5331 1.85015 60.8603 2.40856C61.1875 2.96696 61.3491 3.60031 61.3491 4.31236C61.3491 5.02442 61.1875 5.65777 60.8603 6.21617C60.5331 6.77457 60.0866 7.21305 59.5208 7.52411C58.9549 7.83516 58.3237 7.99631 57.6308 7.99631C56.938 7.99631 56.3182 7.83891 55.7486 7.52411V7.5316ZM59.0242 6.83079C59.4399 6.59469 59.7633 6.26115 60.0019 5.82642C60.2406 5.39169 60.3599 4.8895 60.3599 4.31611C60.3599 3.74272 60.2406 3.23304 60.0019 2.79831C59.7633 2.36733 59.4399 2.03379 59.0281 1.80143C58.6162 1.56533 58.1504 1.44915 57.627 1.44915C57.1035 1.44915 56.6339 1.56533 56.2259 1.80143C55.814 2.03754 55.4907 2.36733 55.252 2.79831C55.0134 3.22929 54.8979 3.73522 54.8979 4.31611C54.8979 4.897 55.0172 5.39169 55.252 5.82642C55.4907 6.26115 55.814 6.59469 56.2297 6.83079C56.6454 7.06689 57.1112 7.18307 57.627 7.18307C58.1428 7.18307 58.6085 7.06689 59.0242 6.83079Z" fill="white"/>
<path id="Vector_9" d="M69.086 2.80548C68.882 2.38574 68.5818 2.05969 68.193 1.82734C67.8042 1.59498 67.35 1.47881 66.8342 1.47881C66.3184 1.47881 65.8527 1.59498 65.437 1.82734C65.0213 2.05969 64.6979 2.38949 64.4593 2.82047C64.2206 3.25145 64.1052 3.74989 64.1052 4.31578C64.1052 4.88168 64.2245 5.37637 64.4593 5.80735C64.6979 6.23459 65.0213 6.56438 65.437 6.79673C65.8527 7.02909 66.3184 7.14527 66.8342 7.14527C67.5579 7.14527 68.1507 6.9354 68.6203 6.51191C69.086 6.09217 69.3593 5.52253 69.4401 4.80298H66.4839V4.03846H70.4679V4.76176C70.4101 5.35389 70.2215 5.8973 69.8943 6.39199C69.5672 6.88668 69.1399 7.27644 68.6087 7.56126C68.0775 7.84608 67.4847 7.99224 66.8342 7.99224C66.1452 7.99224 65.5217 7.83484 64.952 7.52003C64.3861 7.20523 63.9358 6.7705 63.6086 6.2121C63.2776 5.6537 63.1159 5.02034 63.1159 4.31953C63.1159 3.61872 63.2814 2.98162 63.6086 2.41947C63.9396 1.85732 64.3861 1.41884 64.952 1.10404C65.5178 0.789238 66.1452 0.631836 66.8342 0.631836C67.6195 0.631836 68.3162 0.822968 68.9243 1.20148C69.5287 1.57999 69.9713 2.11591 70.2485 2.80548H69.0899H69.086Z" fill="white"/>
<path id="Vector_10" d="M77.7775 0.714355L75.364 5.20405V7.92485H74.3979V5.20405L71.9729 0.714355H73.0468L74.8752 4.36832L76.7036 0.714355H77.7775Z" fill="white"/>
<path id="Vector_11" d="M87.5236 0.714686V1.47921H84.3018V3.91144H86.9154V4.67596H84.3018V7.92518H83.3357V0.710938H87.5236V0.714686Z" fill="white"/>
<path id="Vector_12" d="M91.0225 7.5316C90.4567 7.2168 90.0063 6.77832 89.6792 6.21617C89.3481 5.65403 89.1865 5.02067 89.1865 4.31611C89.1865 3.61155 89.352 2.9782 89.6792 2.41605C90.0102 1.8539 90.4567 1.41542 91.0225 1.10062C91.5884 0.785818 92.2158 0.628418 92.9048 0.628418C93.5938 0.628418 94.2289 0.785818 94.7947 1.10062C95.3606 1.41542 95.8071 1.85015 96.1342 2.40856C96.4614 2.96696 96.6231 3.60031 96.6231 4.31236C96.6231 5.02442 96.4614 5.65777 96.1342 6.21617C95.8071 6.77457 95.3606 7.21305 94.7947 7.52411C94.2289 7.83516 93.5976 7.99631 92.9048 7.99631C92.2119 7.99631 91.5922 7.83891 91.0225 7.52411V7.5316ZM94.302 6.83079C94.7178 6.59469 95.0411 6.26115 95.2797 5.82642C95.5184 5.39169 95.6377 4.8895 95.6377 4.31611C95.6377 3.74272 95.5184 3.23304 95.2797 2.79831C95.0411 2.36733 94.7177 2.03379 94.3059 1.80143C93.894 1.56533 93.4283 1.44915 92.9048 1.44915C92.3813 1.44915 91.9117 1.56533 91.5037 1.80143C91.0918 2.03754 90.7685 2.36733 90.5298 2.79831C90.2912 3.22929 90.1757 3.73522 90.1757 4.31611C90.1757 4.897 90.295 5.39169 90.5298 5.82642C90.7685 6.26115 91.0918 6.59469 91.5075 6.83079C91.9232 7.06689 92.389 7.18307 92.9048 7.18307C93.4206 7.18307 93.8863 7.06689 94.302 6.83079Z" fill="white"/>
<path id="Vector_13" d="M102.647 7.9286L100.884 4.97919H99.714V7.9286H98.7479V0.714355H101.138C101.696 0.714355 102.17 0.808047 102.559 0.99543C102.943 1.18281 103.232 1.43391 103.425 1.75246C103.617 2.07101 103.713 2.43078 103.713 2.83928C103.713 3.33772 103.567 3.77244 103.271 4.15471C102.974 4.53697 102.535 4.78431 101.947 4.90799L103.806 7.9286H102.647ZM99.714 4.22216H101.138C101.662 4.22216 102.054 4.09474 102.316 3.84365C102.578 3.59256 102.709 3.25527 102.709 2.83553C102.709 2.41579 102.578 2.07476 102.32 1.8424C102.062 1.61005 101.666 1.49012 101.134 1.49012H99.7102V4.22216H99.714Z" fill="white"/>
<path id="Vector_14" d="M115.457 0.714355V7.9286H114.491V4.65689H110.719V7.9286H109.753V0.714355H110.719V3.88112H114.491V0.714355H115.457Z" fill="white"/>
<path id="Vector_15" d="M118.898 0.714355V5.279C118.898 5.91985 119.06 6.3958 119.383 6.70686C119.707 7.01792 120.153 7.17157 120.727 7.17157C121.3 7.17157 121.739 7.01792 122.059 6.70686C122.378 6.3958 122.544 5.91985 122.544 5.279V0.714355H123.51V5.26776C123.51 5.86739 123.387 6.37332 123.136 6.78556C122.886 7.1978 122.555 7.50136 122.132 7.69999C121.708 7.89862 121.239 7.9998 120.711 7.9998C120.184 7.9998 119.714 7.89862 119.291 7.69999C118.868 7.50136 118.537 7.19405 118.29 6.78556C118.044 6.37332 117.925 5.87113 117.925 5.26776V0.714355H118.891H118.898Z" fill="white"/>
<path id="Vector_16" d="M133.491 0.76709V7.92886H132.525V2.58845L130.08 7.92886H129.399L126.943 2.57721V7.92886H125.977V0.76709H127.02L129.742 6.68464L132.463 0.76709H133.495H133.491Z" fill="white"/>
<path id="Vector_17" d="M140.358 6.32488H137.128L136.532 7.92888H135.512L138.191 0.755859H139.307L141.974 7.92888H140.954L140.358 6.32488ZM140.081 5.55661L138.741 1.91388L137.401 5.55661H140.081Z" fill="white"/>
<path id="Vector_18" d="M149.815 7.92877H148.849L144.957 2.18735V7.92877H143.991V0.707031H144.957L148.849 6.44095V0.707031H149.815V7.92877Z" fill="white"/>
<path id="Vector_19" d="M153.279 0.714355V7.9286H152.313V0.714355H153.279Z" fill="white"/>
<path id="Vector_20" d="M160.339 0.714355V1.47888H158.318V7.92485H157.352V1.47888H155.323V0.714355H160.339Z" fill="white"/>
<path id="Vector_21" d="M167.564 0.714355L165.15 5.20405V7.92485H164.184V5.20405L161.759 0.714355H162.833L164.661 4.36832L166.49 0.714355H167.564Z" fill="white"/>
</g>
</svg>
