<svg width="233" height="32" viewBox="0 0 233 32" fill="none" xmlns="http://www.w3.org/2000/svg">
<g id="Group">
<path id="Vector" d="M17.2374 5.92772H10.7169V24.205H6.2518V5.92772H0.416428V1.99268H10.5513L10.713 4.94208L12.7338 1.99268H17.1681L17.2335 5.92772H17.2374Z" fill="white"/>
<path id="Vector_2" d="M20.7902 17.7964V18.0812C20.7902 19.5091 21.5061 20.2061 22.9727 20.2061H30.7288V24.2049H21.3753C18.4076 24.2049 16.4868 22.3011 16.4868 19.4453V11.7327C16.4868 8.87695 18.4114 6.97314 21.3753 6.97314H25.8403C28.8081 6.97314 30.7288 8.87695 30.7288 11.7327V14.6521C30.7288 17.3504 30.3054 17.7926 27.534 17.7926H20.7863L20.7902 17.7964ZM20.7902 17.0956L23.0073 13.985H26.4639L26.4331 13.0968C26.4331 11.639 25.748 10.9719 24.2506 10.9719H22.9804C21.5138 10.9719 20.7979 11.639 20.7979 13.0968V17.0956H20.7902Z" fill="white"/>
<path id="Vector_3" d="M46.8646 20.2061V24.2049H38.4541C35.4864 24.2049 33.5657 22.3011 33.5657 19.4453V11.7327C33.5657 8.87695 35.4903 6.97314 38.4541 6.97314H46.6991V10.9719H40.0516C38.585 10.9719 37.8691 11.639 37.8691 13.0968V18.0775C37.8691 19.5053 38.585 20.2024 40.0516 20.2024H46.8646V20.2061Z" fill="white"/>
<path id="Vector_4" d="M65.0829 11.7328V24.205H60.7795V13.8615C60.7795 11.6391 59.1512 10.5298 57.2613 10.5298C55.1442 10.5298 53.7431 11.6091 53.7431 13.8315V24.2087H49.4397V-0.00488281H53.7431V9.92641L55.764 6.97326H60.1982C63.166 6.97326 65.0867 8.87707 65.0867 11.7328H65.0829Z" fill="white"/>
<path id="Vector_5" d="M81.0839 20.2061V24.2049H67.427V23.4741C67.427 22.331 67.785 21.188 68.4393 20.2361L74.6981 10.9719H67.7542V6.97314H80.7568V7.67021C80.7568 8.84323 80.3988 9.95628 79.7483 10.9382L73.4895 20.2024H81.0839V20.2061Z" fill="white"/>
<path id="Vector_6" d="M99.1097 11.7327V19.4453C99.1097 22.3011 97.1851 24.2049 94.252 24.2049H88.1896C85.2218 24.2049 83.3011 22.3011 83.3011 19.4453V11.7327C83.3011 8.87695 85.2257 6.97314 88.1896 6.97314H94.252C97.1851 6.97314 99.1097 8.87695 99.1097 11.7327ZM94.841 13.1006C94.841 11.6427 94.125 10.9756 92.6238 10.9756H89.787C88.3204 10.9756 87.6045 11.6427 87.6045 13.1006V18.0812C87.6045 19.5091 88.3204 20.2061 89.787 20.2061H92.6238C94.125 20.2061 94.841 19.5091 94.841 18.0812V13.1006Z" fill="white"/>
<path id="Vector_7" d="M117.851 11.7328V24.205H113.548V13.8615C113.548 11.6391 111.92 10.5298 110.03 10.5298C107.913 10.5298 106.512 11.6092 106.512 13.8315V24.2088H102.208V6.97705H106.185L106.512 9.93021L108.533 6.97705H112.967C115.935 6.97705 117.855 8.88086 117.855 11.7366L117.851 11.7328Z" fill="white"/>
<path id="Vector_8" d="M125.084 17.7964V18.0812C125.084 19.5091 125.8 20.2061 127.267 20.2061H135.023V24.2049H125.669C122.701 24.2049 120.781 22.3011 120.781 19.4453V11.7327C120.781 8.87695 122.705 6.97314 125.669 6.97314H130.134C133.102 6.97314 135.023 8.87695 135.023 11.7327V14.6521C135.023 17.3504 134.599 17.7926 131.828 17.7926H125.08L125.084 17.7964ZM125.084 17.0956L127.301 13.985H130.758L130.727 13.0968C130.727 11.639 130.042 10.9719 128.544 10.9719H127.274C125.808 10.9719 125.092 11.639 125.092 13.0968V17.0956H125.084Z" fill="white"/>
<path id="Vector_9" d="M164.977 6.7522V19.4455C164.977 22.3012 163.053 24.205 160.089 24.205H148.68V1.99268H152.983L153.145 4.94208L155.166 1.99268H160.089C163.056 1.99268 164.977 3.89649 164.977 6.7522ZM160.512 8.05264C160.512 6.62478 159.827 5.92772 158.33 5.92772H153.149V20.27H158.33C159.831 20.27 160.512 19.5729 160.512 18.1451V8.05264Z" fill="white"/>
<path id="Vector_10" d="M172.541 4.27852L168.761 6.97684H172.541V24.2086H168.237V1.16797H172.541V4.27852Z" fill="white"/>
<path id="Vector_11" d="M190.301 17.699C190.301 20.5547 188.376 22.4585 185.412 22.4585L180.459 25.0931C179.939 25.3779 179.743 25.6627 179.743 26.2024V26.7421C179.743 27.7877 180.297 28.0425 180.882 28.0425H190.301V31.8801H179.285C176.709 31.8801 175.505 30.7708 175.505 28.2636V26.5172C175.505 25.2168 175.993 24.2948 177.167 23.7552L179.904 22.4547C177.233 22.2636 175.505 20.3935 175.505 17.6952V11.7289C175.505 8.87323 177.429 6.96942 180.393 6.96942H184.173L186.194 9.92258L186.356 5.92383H190.301V17.6952V17.699ZM186.198 12.9394C186.198 11.7327 185.709 10.8145 184.015 10.8145H181.833C180.335 10.8145 179.65 11.4816 179.65 12.9394V16.4922C179.65 17.9501 180.335 18.6171 181.833 18.6171H184.015C185.482 18.6171 186.198 17.9501 186.198 16.4922V12.9394Z" fill="white"/>
<path id="Vector_12" d="M197.668 4.27852L193.888 6.97684H197.668V24.2086H193.365V1.16797H197.668V4.27852Z" fill="white"/>
<path id="Vector_13" d="M208.781 6.97331V10.8784H206.533V24.205H202.23V10.8784H199.947V6.97331H202.23V1.99268H206.533V4.84839L202.753 6.97331H208.781Z" fill="white"/>
<path id="Vector_14" d="M225.471 11.7327V24.2049H221.202V21.6977L219.181 24.2049H215.856C212.726 24.2049 210.317 23.5378 210.317 20.2998V17.2867C210.317 14.3973 211.652 13.8576 214.489 13.1605L220.194 11.8264C220.779 11.6989 221.141 11.6352 221.106 11.2567C221.075 11.0356 220.879 10.9719 220.648 10.9719H211.687V6.97314H220.586C223.554 6.97314 225.475 8.87695 225.475 11.7327H225.471ZM221.202 15.2555L216.51 16.3985C214.978 16.8107 214.978 17.3204 214.978 18.4297V19.3179C214.978 20.3335 215.401 20.7158 216.737 20.7158L221.202 20.7458V15.2555Z" fill="white"/>
<path id="Vector_15" d="M228.697 24.205V-0.00488281H233V24.2087H228.697V24.205Z" fill="white"/>
</g>
</svg>
