<svg width="119" height="50" viewBox="0 0 119 50" fill="none" xmlns="http://www.w3.org/2000/svg">
<g id="Layer_1">
<g id="Group">
<g id="Group_2">
<g id="Group_3">
<path id="Vector" d="M41.5788 11.8595H37.3134V24.1819H34.3905V11.8595H30.5712V9.20496H37.2072L37.3134 11.1948L38.6346 9.20496H41.5363L41.5788 11.8595Z" fill="white"/>
<path id="Vector_2" d="M43.9026 19.8614V20.0531C43.9026 21.0161 44.3742 21.4848 45.3301 21.4848H50.4069V24.1819H44.285C42.3435 24.1819 41.086 22.8994 41.086 20.9735V15.7752C41.086 13.8493 42.3435 12.5668 44.285 12.5668H47.2078C49.1494 12.5668 50.4069 13.8493 50.4069 15.7752V17.7437C50.4069 19.5631 50.1307 19.8614 48.3167 19.8614H43.9026ZM43.9026 19.3927L45.3513 17.2963H47.6114L47.5902 16.6956C47.5902 15.7113 47.1441 15.2639 46.1628 15.2639H45.3301C44.3699 15.2639 43.9026 15.7113 43.9026 16.6956V19.3927Z" fill="white"/>
<path id="Vector_3" d="M60.9683 21.489V24.1862H55.4667C53.5252 24.1862 52.2677 22.9037 52.2677 20.9777V15.7795C52.2677 13.8536 53.5252 12.571 55.4667 12.571H60.8621V15.2682H56.5118C55.5516 15.2682 55.0843 15.7156 55.0843 16.6998V20.0574C55.0843 21.0203 55.5559 21.489 56.5118 21.489H60.9683Z" fill="white"/>
<path id="Vector_4" d="M72.8935 15.7752V24.1819H70.0768V17.2069C70.0768 15.7113 69.0105 14.9614 67.7742 14.9614C66.3892 14.9614 65.4716 15.69 65.4716 17.1856V24.1819H62.6549V7.85852H65.4716V14.5566L66.7928 12.5668H69.6945C71.636 12.5668 72.8935 13.8493 72.8935 15.7752Z" fill="white"/>
<path id="Vector_5" d="M83.3657 21.489V24.1862H74.4271V23.6962C74.4271 22.925 74.6608 22.1537 75.0899 21.5146L79.1853 15.2682H74.6438V12.571H83.1533V13.0397C83.1533 13.8323 82.9196 14.5822 82.4905 15.2426L78.3951 21.489H83.3657Z" fill="white"/>
<path id="Vector_6" d="M95.1634 15.7752V20.9735C95.1634 22.8994 93.9059 24.1819 91.9856 24.1819H88.0177C86.0761 24.1819 84.8186 22.8994 84.8186 20.9735V15.7752C84.8186 13.8493 86.0761 12.5668 88.0177 12.5668H91.9856C93.9059 12.5668 95.1634 13.8493 95.1634 15.7752ZM92.368 16.6956C92.368 15.7113 91.8964 15.2639 90.9193 15.2639H89.0628C88.1026 15.2639 87.6353 15.7113 87.6353 16.6956V20.0531C87.6353 21.0161 88.1069 21.4848 89.0628 21.4848H90.9193C91.9007 21.4848 92.368 21.0161 92.368 20.0531V16.6956Z" fill="white"/>
<path id="Vector_7" d="M107.428 15.7752V24.1819H104.612V17.2069C104.612 15.7113 103.545 14.9614 102.309 14.9614C100.924 14.9614 100.007 15.69 100.007 17.1856V24.1819H97.1899V12.5668H99.7941L100.007 14.5566L101.328 12.5668H104.229C106.171 12.5668 107.428 13.8493 107.428 15.7752Z" fill="white"/>
<path id="Vector_8" d="M112.165 19.8614V20.0531C112.165 21.0161 112.637 21.4848 113.593 21.4848H118.67V24.1819H112.548C110.606 24.1819 109.349 22.8994 109.349 20.9735V15.7752C109.349 13.8493 110.606 12.5668 112.548 12.5668H115.471C117.412 12.5668 118.67 13.8493 118.67 15.7752V17.7437C118.67 19.5631 118.393 19.8614 116.579 19.8614H112.165ZM112.165 19.3927L113.614 17.2963H115.874L115.853 16.6956C115.853 15.7113 115.407 15.2639 114.425 15.2639H113.593C112.633 15.2639 112.165 15.7113 112.165 16.6956V19.3927Z" fill="white"/>
<path id="Vector_9" d="M42.3477 32.1668V40.7226C42.3477 42.6485 41.0902 43.931 39.1487 43.931H31.6843V28.9541H34.501L34.6072 30.9439L35.9284 28.9541H39.1487C41.0902 28.9541 42.3477 30.2366 42.3477 32.1625V32.1668ZM39.4248 33.0402C39.4248 32.0773 38.9788 31.6086 37.9974 31.6086H34.6072V41.2808H37.9974C38.9788 41.2808 39.4248 40.8121 39.4248 39.8491V33.0445V33.0402Z" fill="white"/>
<path id="Vector_10" d="M47.2971 30.4965L44.8245 32.3159H47.2971V43.931H44.4804V28.4002H47.2971V30.4965Z" fill="white"/>
<path id="Vector_11" d="M58.9206 39.5466C58.9206 41.4725 57.6631 42.755 55.7216 42.755L52.4801 44.5318C52.1402 44.7235 52.0127 44.9153 52.0127 45.2817V45.6439C52.0127 46.3512 52.3739 46.5216 52.7605 46.5216H58.9248V49.1122H51.7154C50.0288 49.1122 49.2428 48.3623 49.2428 46.675V45.499C49.2428 44.6213 49.5614 44.0035 50.3304 43.637L52.1232 42.7593C50.3729 42.6315 49.2428 41.3702 49.2428 39.5509V35.5286C49.2428 33.6027 50.5003 32.3202 52.4418 32.3202H54.9144L56.2356 34.31L56.3418 31.6129H58.9248V39.5509L58.9206 39.5466ZM56.2314 36.3382C56.2314 35.5243 55.9127 34.9065 54.8039 34.9065H53.3765C52.3951 34.9065 51.949 35.3539 51.949 36.3382V38.7328C51.949 39.717 52.3951 40.1644 53.3765 40.1644H54.8039C55.7641 40.1644 56.2314 39.717 56.2314 38.7328V36.3382Z" fill="white"/>
<path id="Vector_12" d="M63.7425 30.4965L61.2699 32.3159H63.7425V43.931H60.9258V28.4002H63.7425V30.4965Z" fill="white"/>
<path id="Vector_13" d="M71.0157 32.3159V34.9491H69.5415V43.9353H66.7248V34.9491H65.2337V32.3159H66.7248V28.9583H69.5415V30.8843L67.0689 32.3159H71.0157Z" fill="white"/>
<path id="Vector_14" d="M81.9382 35.5243V43.931H79.1428V42.2395L77.8216 43.931H75.6464C73.5987 43.931 72.0183 43.4836 72.0183 41.2978V39.2654C72.0183 37.3182 72.8935 36.956 74.75 36.483L78.4843 35.584C78.8667 35.4988 79.1046 35.4562 79.0833 35.2005C79.0621 35.0514 78.9346 35.0088 78.786 35.0088H72.919V32.3116H78.7435C80.685 32.3116 81.9425 33.5942 81.9425 35.5201L81.9382 35.5243ZM79.1428 37.8976L76.0712 38.6689C75.0686 38.9458 75.0686 39.2909 75.0686 40.0366V40.6374C75.0686 41.3234 75.3448 41.579 76.2199 41.579L79.1428 41.6003V37.8976Z" fill="white"/>
<path id="Vector_15" d="M84.0497 43.9311V27.6077H86.8663V43.9311H84.0497Z" fill="white"/>
</g>
<path id="Vector_16" d="M11.0288 39.3293H18.319C18.5059 39.3293 18.6588 39.4827 18.6588 39.6702V48.8012C18.6588 48.9887 18.5059 49.1421 18.319 49.1421H10.2131C4.57124 49.1421 0 44.5574 0 38.899V11.0371C0 10.8497 0.148693 10.7005 0.335621 10.6963L10.3703 10.5173C10.5614 10.5173 10.7186 10.6664 10.7186 10.8582L10.7101 15.2128C10.7101 15.4003 10.8631 15.5537 11.05 15.5537H21.6242C21.9003 15.5537 22.0618 15.869 21.9003 16.0948L15.9399 24.314C15.8761 24.4035 15.7742 24.4546 15.6637 24.4546H11.033C10.8461 24.4546 10.6931 24.608 10.6931 24.7955V38.9799C10.6931 39.1674 10.8461 39.3208 11.033 39.3208L11.0288 39.3293ZM21.8239 6.07322H14.7121C14.5252 6.07322 14.3722 5.91983 14.3722 5.73235V0.874958C14.3722 0.687479 14.2193 0.534088 14.0324 0.534088H4.09967C3.91274 0.534088 3.7598 0.687479 3.7598 0.874958V6.03487C3.7598 6.22235 3.91274 6.37574 4.09967 6.37574H13.8072C13.9941 6.37574 14.1471 6.52913 14.1471 6.71661V11.574C14.1471 11.7615 14.3 11.9149 14.4869 11.9149H21.8281C22.015 11.9149 22.168 11.7615 22.168 11.574V6.40983C22.168 6.22235 22.015 6.06896 21.8281 6.06896L21.8239 6.07322Z" fill="white"/>
</g>
<g id="Group_4">
<path id="Vector_17" d="M90.8046 29.883V30.1897H90.0229V32.7591H89.649V30.1897H88.8631V29.883H90.8046Z" fill="white"/>
<path id="Vector_18" d="M91.9686 30.1897V31.1484H93.0137V31.4595H91.9686V32.448H93.1369V32.7591H91.5948V29.883H93.1369V30.194H91.9686V30.1897Z" fill="white"/>
<path id="Vector_19" d="M94.0801 30.5604C94.2075 30.3346 94.3774 30.1599 94.5941 30.0364C94.8108 29.9085 95.0529 29.8489 95.3206 29.8489C95.6307 29.8489 95.9069 29.9256 96.1363 30.0747C96.3699 30.2238 96.5399 30.4411 96.6461 30.7181H96.2C96.1193 30.5434 96.0046 30.4113 95.8559 30.3176C95.7072 30.2238 95.5287 30.177 95.3206 30.177C95.1124 30.177 94.9425 30.2238 94.781 30.3176C94.6196 30.4113 94.4964 30.5434 94.4072 30.7138C94.318 30.8843 94.2712 31.0888 94.2712 31.3189C94.2712 31.549 94.318 31.745 94.4072 31.9197C94.4964 32.0901 94.6239 32.2222 94.781 32.3159C94.9382 32.4097 95.1209 32.4565 95.3206 32.4565C95.5203 32.4565 95.7072 32.4097 95.8559 32.3202C96.0046 32.2264 96.1193 32.0944 96.2 31.9239H96.6461C96.5399 32.1966 96.3699 32.4097 96.1363 32.5588C95.9026 32.7079 95.6307 32.7846 95.3206 32.7846C95.0529 32.7846 94.815 32.7207 94.5941 32.5971C94.3732 32.4736 94.2033 32.2989 94.0801 32.0773C93.9526 31.8557 93.8931 31.6044 93.8931 31.3231C93.8931 31.0419 93.9569 30.7905 94.0801 30.569V30.5604Z" fill="white"/>
<path id="Vector_20" d="M99.7389 29.883V32.7548H99.365V31.451H97.9079V32.7548H97.534V29.883H97.9079V31.1442H99.365V29.883H99.7389Z" fill="white"/>
<path id="Vector_21" d="M102.955 32.7548H102.581L101.077 30.4667V32.7548H100.703V29.8787H101.077L102.581 32.1625V29.8787H102.955V32.7548Z" fill="white"/>
<path id="Vector_22" d="M104.493 32.5971C104.272 32.4736 104.102 32.2989 103.975 32.073C103.847 31.8472 103.783 31.5958 103.783 31.3189C103.783 31.0419 103.847 30.7863 103.975 30.5647C104.102 30.3431 104.276 30.1642 104.493 30.0406C104.709 29.917 104.956 29.8531 105.219 29.8531C105.483 29.8531 105.733 29.917 105.95 30.0406C106.167 30.1642 106.341 30.3389 106.468 30.5604C106.596 30.782 106.659 31.0334 106.659 31.3189C106.659 31.6043 106.596 31.8557 106.468 32.0773C106.341 32.2989 106.171 32.4736 105.95 32.5971C105.729 32.7207 105.487 32.7846 105.219 32.7846C104.952 32.7846 104.709 32.7207 104.493 32.5971ZM105.759 32.3202C105.92 32.2264 106.043 32.0943 106.137 31.9196C106.23 31.7449 106.273 31.5447 106.273 31.3189C106.273 31.093 106.226 30.8885 106.137 30.7138C106.043 30.5434 105.92 30.4113 105.763 30.3176C105.606 30.2238 105.423 30.1769 105.219 30.1769C105.015 30.1769 104.837 30.2238 104.675 30.3176C104.518 30.4113 104.391 30.5434 104.297 30.7138C104.204 30.8843 104.161 31.0888 104.161 31.3189C104.161 31.5489 104.208 31.7492 104.297 31.9196C104.391 32.0943 104.514 32.2264 104.675 32.3202C104.837 32.4139 105.015 32.4608 105.215 32.4608C105.415 32.4608 105.593 32.4139 105.755 32.3202H105.759Z" fill="white"/>
<path id="Vector_23" d="M107.853 32.4523H108.856V32.759H107.479V29.8872H107.853V32.4565V32.4523Z" fill="white"/>
<path id="Vector_24" d="M110.152 32.5971C109.931 32.4736 109.761 32.2989 109.633 32.073C109.506 31.8472 109.442 31.5958 109.442 31.3189C109.442 31.0419 109.506 30.7863 109.633 30.5647C109.761 30.3431 109.935 30.1642 110.152 30.0406C110.368 29.917 110.615 29.8531 110.878 29.8531C111.142 29.8531 111.392 29.917 111.609 30.0406C111.825 30.1642 112 30.3389 112.127 30.5604C112.255 30.782 112.318 31.0334 112.318 31.3189C112.318 31.6043 112.255 31.8557 112.127 32.0773C112 32.2989 111.83 32.4736 111.609 32.5971C111.388 32.7207 111.146 32.7846 110.878 32.7846C110.61 32.7846 110.368 32.7207 110.152 32.5971ZM111.422 32.3202C111.583 32.2264 111.707 32.0943 111.8 31.9196C111.893 31.7449 111.936 31.5447 111.936 31.3189C111.936 31.093 111.889 30.8885 111.8 30.7138C111.707 30.5434 111.583 30.4113 111.426 30.3176C111.269 30.2238 111.086 30.1769 110.882 30.1769C110.678 30.1769 110.5 30.2238 110.339 30.3176C110.181 30.4113 110.054 30.5434 109.96 30.7138C109.867 30.8843 109.825 31.0888 109.825 31.3189C109.825 31.5489 109.871 31.7492 109.96 31.9196C110.054 32.0943 110.177 32.2264 110.339 32.3202C110.5 32.4139 110.678 32.4608 110.878 32.4608C111.078 32.4608 111.256 32.4139 111.418 32.3202H111.422Z" fill="white"/>
<path id="Vector_25" d="M115.309 30.7138C115.228 30.5476 115.114 30.4156 114.965 30.3261C114.816 30.2323 114.638 30.1897 114.438 30.1897C114.239 30.1897 114.06 30.2366 113.899 30.3261C113.737 30.4198 113.614 30.5519 113.521 30.7223C113.427 30.8928 113.385 31.093 113.385 31.3189C113.385 31.5447 113.431 31.7407 113.521 31.9111C113.614 32.0816 113.737 32.2136 113.899 32.3031C114.06 32.3969 114.239 32.4395 114.438 32.4395C114.719 32.4395 114.948 32.3543 115.131 32.1881C115.313 32.0219 115.415 31.7961 115.445 31.5063H114.302V31.1996H115.844V31.4893C115.823 31.7236 115.747 31.941 115.624 32.137C115.496 32.333 115.33 32.4906 115.126 32.6014C114.923 32.7164 114.693 32.7718 114.438 32.7718C114.171 32.7718 113.928 32.7079 113.712 32.5843C113.495 32.4608 113.321 32.2861 113.193 32.0645C113.066 31.843 113.002 31.5916 113.002 31.3103C113.002 31.0291 113.066 30.7777 113.193 30.5562C113.321 30.3346 113.495 30.1556 113.712 30.0321C113.928 29.9085 114.175 29.8446 114.438 29.8446C114.744 29.8446 115.012 29.9213 115.245 30.0704C115.479 30.2196 115.649 30.4326 115.755 30.7096H115.309V30.7138Z" fill="white"/>
<path id="Vector_26" d="M118.67 29.883L117.735 31.6725V32.7548H117.361V31.6725L116.426 29.883H116.843L117.548 31.3359L118.253 29.883H118.67Z" fill="white"/>
<path id="Vector_27" d="M90.6601 34.7318V35.0386H89.4154V36.0058H90.4265V36.3126H89.4154V37.6079H89.0415V34.7361H90.6601V34.7318Z" fill="white"/>
<path id="Vector_28" d="M92.0111 37.446C91.7902 37.3224 91.6203 37.1477 91.4928 36.9219C91.3654 36.6961 91.3016 36.4447 91.3016 36.1677C91.3016 35.8908 91.3654 35.6351 91.4928 35.4136C91.6203 35.192 91.7944 35.013 92.0111 34.8895C92.2278 34.7659 92.4742 34.702 92.7376 34.702C93.001 34.702 93.2516 34.7659 93.4683 34.8895C93.685 35.013 93.8591 35.1877 93.9866 35.4093C94.114 35.6309 94.1778 35.8823 94.1778 36.1677C94.1778 36.4532 94.114 36.7046 93.9866 36.9262C93.8591 37.1477 93.6892 37.3224 93.4683 37.446C93.2474 37.5696 93.0052 37.6335 92.7376 37.6335C92.4699 37.6335 92.2278 37.5696 92.0111 37.446ZM93.2814 37.169C93.4428 37.0753 93.566 36.9432 93.6595 36.7685C93.7529 36.5938 93.7954 36.3936 93.7954 36.1677C93.7954 35.9419 93.7487 35.7374 93.6595 35.5627C93.566 35.3923 93.4428 35.2602 93.2856 35.1664C93.1284 35.0727 92.9458 35.0258 92.7418 35.0258C92.5379 35.0258 92.3595 35.0727 92.198 35.1664C92.0409 35.2602 91.9134 35.3923 91.8199 35.5627C91.7265 35.7331 91.684 35.9376 91.684 36.1677C91.684 36.3978 91.7307 36.5981 91.8199 36.7685C91.9134 36.9432 92.0366 37.0753 92.198 37.169C92.3595 37.2628 92.5379 37.3096 92.7376 37.3096C92.9373 37.3096 93.1157 37.2628 93.2771 37.169H93.2814Z" fill="white"/>
<path id="Vector_29" d="M96.5059 37.6079L95.8261 36.4319H95.3758V37.6079H95.002V34.7361H95.9281C96.1448 34.7361 96.3274 34.7744 96.4761 34.8469C96.6248 34.9193 96.7353 35.0216 96.8118 35.1494C96.884 35.2772 96.9222 35.4178 96.9222 35.584C96.9222 35.78 96.867 35.9547 96.7523 36.1081C96.6376 36.2615 96.4676 36.3595 96.2425 36.4106L96.9604 37.6122H96.5144L96.5059 37.6079ZM95.3758 36.1294H95.9281C96.132 36.1294 96.2807 36.0783 96.3827 35.9803C96.4846 35.878 96.5356 35.7459 96.5356 35.5797C96.5356 35.4136 96.4846 35.2772 96.3869 35.1835C96.285 35.0897 96.132 35.0429 95.9281 35.0429H95.3758V36.1294Z" fill="white"/>
<path id="Vector_30" d="M91.2506 39.585V42.4568H90.8768V41.153H89.4196V42.4568H89.0457V39.585H89.4196V40.8462H90.8768V39.585H91.2506Z" fill="white"/>
<path id="Vector_31" d="M92.5804 39.585V41.4044C92.5804 41.66 92.6441 41.8475 92.7673 41.971C92.8905 42.0946 93.0647 42.1543 93.2856 42.1543C93.5065 42.1543 93.6765 42.0946 93.7997 41.971C93.9229 41.8475 93.9866 41.66 93.9866 41.4044V39.585H94.3605V41.4001C94.3605 41.6387 94.3137 41.839 94.216 42.0051C94.1183 42.167 93.9909 42.2906 93.8294 42.3716C93.668 42.4525 93.4853 42.4909 93.2814 42.4909C93.0775 42.4909 92.8948 42.4525 92.7333 42.3716C92.5719 42.2906 92.4402 42.1713 92.3467 42.0051C92.2533 41.839 92.2065 41.6387 92.2065 41.4001V39.585H92.5804Z" fill="white"/>
<path id="Vector_32" d="M98.2222 39.6063V42.4568H97.8484V40.3306L96.9052 42.4568H96.6418L95.6944 40.3264V42.4568H95.3206V39.6063H95.7242L96.7778 41.9625L97.8314 39.6063H98.2307H98.2222Z" fill="white"/>
<path id="Vector_33" d="M100.877 41.8176H99.6284L99.399 42.4568H99.0039L100.041 39.602H100.474L101.506 42.4568H101.111L100.882 41.8176H100.877ZM100.767 41.5151L100.249 40.0664L99.7304 41.5151H100.767Z" fill="white"/>
<path id="Vector_34" d="M104.531 42.4568H104.157L102.653 40.1687V42.4568H102.279V39.5807H102.653L104.157 41.8645V39.5807H104.531V42.4568Z" fill="white"/>
<path id="Vector_35" d="M105.874 39.585V42.4568H105.5V39.585H105.874Z" fill="white"/>
<path id="Vector_36" d="M108.601 39.585V39.8917H107.819V42.461H107.445V39.8917H106.659V39.585H108.601Z" fill="white"/>
<path id="Vector_37" d="M111.396 39.585L110.462 41.3745V42.4568H110.088V41.3745L109.153 39.585H109.57L110.275 41.0379L110.98 39.585H111.396Z" fill="white"/>
</g>
</g>
</g>
</svg>
