<svg width="23" height="48" viewBox="0 0 23 48" fill="none" xmlns="http://www.w3.org/2000/svg">
<path id="Vector" d="M11.2012 38.2523H18.6031C18.7956 38.2523 18.9496 38.4023 18.9496 38.5896V47.5915C18.9496 47.7789 18.7956 47.9288 18.6031 47.9288H10.3697C4.64213 47.9288 -0.00384521 43.4054 -0.00384521 37.8289V10.3548C-0.00384521 10.1711 0.146273 10.0212 0.334884 10.0175L10.5275 9.84135C10.72 9.84135 10.8817 9.99126 10.8778 10.1786L10.8701 14.4735C10.8701 14.6608 11.0241 14.8107 11.2165 14.8107H21.9558C22.2368 14.8107 22.4023 15.1218 22.2368 15.3467L16.182 23.4528C16.1166 23.539 16.0126 23.5915 15.901 23.5915H11.1973C11.0048 23.5915 10.8509 23.7414 10.8509 23.9288V37.9151C10.8509 38.1024 11.0048 38.2523 11.1973 38.2523H11.2012ZM22.1675 5.46034H14.9426C14.7501 5.46034 14.5961 5.31043 14.5961 5.12305V0.337289C14.5961 0.149906 14.4422 0 14.2497 0H4.16098C3.96852 0 3.81455 0.149906 3.81455 0.337289V5.42286C3.81455 5.61024 3.96852 5.76015 4.16098 5.76015H14.0188C14.2112 5.76015 14.3652 5.91006 14.3652 6.09744V10.8869C14.3652 11.0743 14.5192 11.2242 14.7116 11.2242H22.1675C22.36 11.2242 22.5139 11.0743 22.5139 10.8869V5.79763C22.5139 5.61024 22.36 5.46034 22.1675 5.46034Z" fill="white"/>
</svg>
